<?xml version="1.0" standalone="no"?>
<!DOCTYPE svg PUBLIC "-//W3C//DTD SVG 20010904//EN"
 "http://www.w3.org/TR/2001/REC-SVG-20010904/DTD/svg10.dtd">
<svg version="1.0" xmlns="http://www.w3.org/2000/svg"
 width="225.000000pt" height="225.000000pt" viewBox="0 0 225.000000 225.000000"
 preserveAspectRatio="xMidYMid meet">
<metadata>
Created by potrace 1.11, written by Peter Selinger 2001-2013
</metadata>
<g transform="translate(0.000000,225.000000) scale(0.100000,-0.100000)"
fill="#000000" stroke="none">
<path d="M0 1125 l0 -1125 1125 0 1125 0 0 1125 0 1125 -1125 0 -1125 0 0
-1125z m865 -382 c65 -34 118 -102 126 -163 4 -24 2 -25 -57 -28 l-62 -3 -19
37 c-52 100 -194 96 -253 -7 -20 -37 -25 -57 -25 -124 0 -69 4 -86 27 -126 43
-72 116 -97 193 -65 33 14 75 75 75 111 0 12 13 15 65 15 74 0 76 -3 50 -81
-35 -102 -114 -159 -231 -167 -140 -9 -246 58 -294 184 -31 84 -26 207 14 287
31 64 89 119 150 141 59 22 189 16 241 -11z m546 12 c71 -26 129 -94 129 -155
0 -18 -6 -20 -65 -20 -48 0 -65 4 -65 14 0 7 -9 25 -20 39 -43 54 -171 41
-186 -18 -10 -42 20 -63 140 -95 122 -33 166 -57 197 -106 31 -51 24 -138 -15
-189 -45 -59 -103 -80 -216 -80 -82 0 -102 3 -145 26 -61 31 -104 89 -108 144
l-2 40 61 3 61 3 12 -41 c17 -57 81 -87 160 -74 51 8 81 36 81 75 0 39 -36 61
-149 89 -117 29 -168 60 -193 117 -30 67 -19 123 35 177 23 23 58 47 77 53 52
16 161 15 211 -2z m550 0 c71 -26 129 -94 129 -155 0 -18 -6 -20 -62 -20 -61
0 -63 1 -78 33 -41 87 -219 62 -196 -28 7 -26 28 -36 155 -70 157 -41 208 -93
199 -201 -6 -66 -40 -113 -105 -145 -40 -20 -63 -24 -143 -24 -83 0 -102 3
-145 26 -61 31 -104 89 -108 144 l-2 40 61 3 c61 3 61 3 67 -27 8 -40 37 -68
86 -81 83 -22 161 12 161 71 0 39 -37 61 -151 89 -49 12 -108 35 -132 50 -120
76 -93 242 48 294 53 19 162 20 216 1z"/>
</g>
</svg>
